<?xml version="1.0" encoding="utf-8"?>

<!DOCTYPE svg PUBLIC "-//W3C//DTD SVG 1.1//EN" "http://www.w3.org/Graphics/SVG/1.1/DTD/svg11.dtd">
<svg version="1.1" id="Layer_1" xmlns="http://www.w3.org/2000/svg" xmlns:xlink="http://www.w3.org/1999/xlink" x="0px" y="0px"
	 viewBox="0 0 1640.259 1636.649" enable-background="new 0 0 1640.259 1636.649" xml:space="preserve">
<g>
	<path d="M1537.046,957.624c-5.351-10.733-7.318-14.147-10.856-20.583c-84.228,77.821-87.667,88.523-65.024,200.281
		c10.564-5.023,11.498-5.396,20.875-10.281C1462.401,1032.705,1465.493,1022.239,1537.046,957.624z"/>
	<path d="M1467.071,1169.427c11.73,81.607-12.745,97.018-16.091,107.269c-8.237,5.959-16.164,34.462-97.118,48.299
		c-0.854,7.75-1.82,15.623-2.854,23.486c44.012-6.382,88.567-19.285,115.144-55.216c0.983-1.345,1.661-2.685,2.102-3.997
		c6.771-4.984,35.291-41.417,20.271-129.8C1481.377,1162.891,1474.131,1166.205,1467.071,1169.427z"/>
	<path d="M1507.124,822.135c0.013-1.431-0.2-2.652-0.604-3.814c1.596-4.579-2.014-19.035,12.732-50.05
		c18.737-39.292,50.324-80.361,62.542-129.139c34.789-144.247-145.116-162.613-194.951-211.515
		c-7.068-6.852-8.157-10.55-11.382-12.704c-0.328-1.15-0.878-2.31-1.711-3.454c-39.178-53.072-4.933-183.042-83.369-240.331
		c-48.956-35.529-116.346-20.313-167.791-9.417c-79.365,16.263-79.506,3.273-90.302,3.684c-3.053-2.402-6.348-2.071-15.588-6.875
		c-38.378-19.793-67.155-71.469-117.316-109.955c-134.345-99.689-210.023,76.021-275.82,109.954
		c-9.207,4.787-12.545,4.48-15.596,6.877c-6.249-0.242-17.85,8.831-58.944,2.276c-59.929-9.978-141.383-38.467-199.164,3.47
		c-78.698,57.485-43.976,186.981-83.345,240.313c-0.836,1.149-1.388,2.311-1.717,3.463c-3.233,2.157-4.271,5.808-11.377,12.697
		c-46.268,45.404-190.961,61.306-199.143,168.853c-5.805,78.963,68.785,149.256,77.743,204.871
		c1.978,11.116,0.36,13.256,1.737,16.988c-0.417,1.127-0.648,2.39-0.619,3.803c0.735,62.201-90.785,137.76-77.919,226.585
		c15.744,105.681,164.811,114.387,206.809,170.327c0.838,1.146,1.777,2.028,2.774,2.693c0.704,2.471,1.277,2.511,5.355,8.96
		c37.623,60.507-7.279,245.429,144.145,256.576c65.802,4.656,130.275-26.722,177.011-19.614c10.252,1.53,12.779,3.744,16.661,3.596
		c0.939,0.739,2.064,1.356,3.409,1.794c33.059,11.212,52.892,39.49,90.579,79.407c164.25,176.187,248.295-52.745,326.912-79.406
		c1.349-0.44,2.478-1.057,3.419-1.797c3.868,0.15,6.412-2.065,16.654-3.593c69.438-10.559,226.813,79.73,281.945-56.764
		c25.783-63.878,13.845-139.408,39.211-180.197c4.066-6.43,4.654-6.494,5.361-8.967c0.995-0.664,1.932-1.542,2.767-2.685
		c45.998-61.267,224.784-68.293,206.849-204.529C1573.826,936.023,1506.474,877.061,1507.124,822.135z M1358.184,1209.167
		c-5.487,3.554-17.681,23.943-23.904,57.276c-8.079,41.455-7.017,96.953-27.313,142.268
		c-53.36,114.383-198.147,14.063-277.961,40.448c-1.306,0.422-2.401,1.034-3.318,1.776c-5.366-0.281-26.622,7.348-52.938,32.283
		c-56.52,53.427-116.614,154.663-209.601,92.627c-36.329-24.239-65.672-64.301-95.637-92.627
		c-25.852-24.496-47.392-32.575-52.948-32.287c-19.888-16.089-93.337,0.41-110.164,3.805
		c-80.891,16.362-146.509,21.792-175.613-57.115c-14.973-40.811-16.417-98.39-22.806-131.179
		c-6.567-35.177-19.269-54.275-23.91-57.285c-7.851-29.012-95.237-62.069-122.343-76.227
		c-78.884-40.583-102.798-84.028-66.191-165.662c19.004-40.846,72.626-119.865,61.585-148.949
		c18.367-48.312-101.5-159.113-74.406-240.222c18.474-58.556,103.548-82.919,154.225-110.251
		c31.097-16.886,45.644-34.861,47.136-40.363c23.457-15.195,29.866-102.157,32.505-122.937
		c14.313-115.133,56.26-148.448,173.093-125.943c15.088,2.695,104.817,24.956,126.899,7.112
		c27.787,1.454,84.057-64.921,98.508-80.311c60.325-63.26,108.631-89.094,177.197-34.891
		c42.309,33.669,101.695,116.954,135.419,115.205c4.185,3.386,25.865,9.683,61.805,4.978
		c68.771-8.392,174.043-53.231,217.752,33.722c31.52,62.819,13.884,151.069,50.213,200.468c0.808,1.111,1.732,1.962,2.723,2.605
		c1.403,5.185,15.26,23.049,47.13,40.355c66.596,35.919,178.481,62.334,154.981,162.841
		c-15.315,64.885-88.771,151.007-75.161,187.643c-0.397,1.067-0.681,2.152-0.7,3.706c-0.016,66.326,75.661,130.771,79.03,206.973
		C1566.062,1140.853,1373.637,1152.155,1358.184,1209.167z"/>
	<path d="M1621.288,818.326c2.406-7.459,3.59-56.432-59.966-116.862c-1.868,3.616-4.19,7.707-11.512,20.662
		c55.819,55.323,47.865,89.642,50.113,96.2c-2.181,6.364,5.63,40.942-50.113,96.2c7.335,12.98,9.644,17.048,11.512,20.662
		C1620.79,878.644,1624.596,828.584,1621.288,818.326z"/>
	<path d="M1381.898,1221.717l67.389,48.481c0.345-0.489,1.379-1.874,2.682-3.958l-67.44-47.891
		C1383.472,1219.643,1382.743,1220.568,1381.898,1221.717z"/>
	<path d="M1390.29,1211.998l66.176,45.783c0.68-1.468,1.322-2.957,1.926-4.464l-64.875-44.295
		C1392.406,1209.99,1391.331,1210.982,1390.29,1211.998z"/>
	<path d="M1400.474,1203.41l61.016,40.572c0.439-1.614,0.844-3.243,1.216-4.885l-58.469-38.361
		C1402.95,1201.609,1401.696,1202.5,1400.474,1203.41z"/>
	<path d="M1412.27,1195.689l52.266,33.381c0.22-1.729,0.412-3.467,0.575-5.212l-48.616-30.629
		C1415.058,1194.036,1413.649,1194.855,1412.27,1195.689z"/>
	<path d="M1425.388,1188.528l40.376,24.75c0.058-1.796,0.103-3.589,0.069-5.417l-35.787-21.635
		C1428.482,1187,1426.929,1187.767,1425.388,1188.528z"/>
	<path d="M1444.561,1179.445c-1.667,0.752-3.324,1.5-4.97,2.243l25.864,15.204c-0.104-1.853-0.228-3.703-0.368-5.551
		L1444.561,1179.445z"/>
	<path d="M1483.993,1114.602l11.424,5.106c1.612-0.948,3.212-1.906,4.799-2.876l-17.4-7.648
		C1483.209,1110.996,1483.602,1112.802,1483.993,1114.602z"/>
	<path d="M1480.697,1098.625l28.857,12.261c1.553-1.016,3.003-2.08,4.479-3.139l-34.335-14.337L1480.697,1098.625z"/>
	<path d="M1478.009,1083.265l44.542,17.956c1.384-1.122,2.745-2.259,4.081-3.411l-49.27-19.506
		C1477.554,1079.949,1477.771,1081.604,1478.009,1083.265z"/>
	<path d="M1476.358,1068.629l57.744,22.039c1.19-1.228,2.352-2.472,3.481-3.734l-61.483-23.029
		C1476.154,1065.469,1476.242,1067.044,1476.358,1068.629z"/>
	<path d="M1476.082,1054.757l67.751,24.424c0.955-1.337,1.876-2.69,2.759-4.062l-70.266-24.838
		C1476.206,1051.76,1476.127,1053.252,1476.082,1054.757z"/>
	<path d="M1477.503,1041.655l73.876,25.09c0.721-1.431,1.337-2.901,1.945-4.378l-74.939-24.932
		C1478.045,1038.828,1477.784,1040.245,1477.503,1041.655z"/>
	<path d="M1480.924,1029.304l75.425,24.06c0.415-1.54,0.784-3.091,1.108-4.652l-74.836-23.36
		C1482.01,1026.654,1481.445,1027.971,1480.924,1029.304z"/>
	<path d="M1486.585,1017.641l72.1,21.53c0.119-1.622,0.197-3.252,0.235-4.889l-69.981-20.424
		C1488.117,1015.107,1487.331,1016.368,1486.585,1017.641z"/>
	<path d="M1494.219,1006.447l64.381,17.927c-0.15-1.68-0.336-3.366-0.555-5.056l-60.912-16.554
		C1496.13,1003.983,1495.158,1005.21,1494.219,1006.447z"/>
	<path d="M1503.524,995.517l52.817,13.654c-0.345-1.705-0.791-3.432-1.225-5.15l-48.195-12.14
		C1505.785,993.097,1504.653,994.309,1503.524,995.517z"/>
	<path d="M1514.139,984.659l38.011,9.076c-0.547-1.722-1.119-3.445-1.712-5.168l-32.449-7.535
		C1516.691,982.236,1515.406,983.444,1514.139,984.659z"/>
	<path d="M1525.842,973.744l20.62,4.52c-0.706-1.719-1.43-3.438-2.169-5.155l-14.352-3.053
		C1528.579,971.282,1527.212,972.512,1525.842,973.744z"/>
	<path d="M1559.891,897.028c1.242-1.403,2.47-2.82,3.632-4.254l-27.818-2.753c0.918,1.576,1.8,3.157,2.694,4.747L1559.891,897.028z"
		/>
	<path d="M1573.521,879.743l-45.416-3.654c0.783,1.529,1.589,3.066,2.418,4.611l39.782,3.447
		C1571.396,882.691,1572.469,881.223,1573.521,879.743z"/>
	<path d="M1581.96,866.291l-60.438-3.75c0.657,1.49,1.345,2.987,2.061,4.491l55.75,3.802
		C1580.237,869.33,1581.112,867.816,1581.96,866.291z"/>
	<path d="M1588.535,852.482l-72.151-3.156c0.491,1.459,1.018,2.922,1.581,4.389l68.646,3.422
		C1587.286,855.594,1587.929,854.042,1588.535,852.482z"/>
	<path d="M1592.904,838.399l-79.868-2.038c0.25,1.436,0.541,2.873,0.875,4.312l77.772,2.458
		C1592.131,841.56,1592.538,839.983,1592.904,838.399z"/>
	<path d="M1594.637,824.155l-82.977-0.614c0.015,1.427,0.079,2.853,0.188,4.277l82.485,1.11
		C1594.481,827.341,1594.584,825.749,1594.637,824.155z"/>
	<path d="M1061.133,1560.09c-9.77-0.004-33.868,18.343-106.994-18.038c-4.144,4.661-12.015,12.997-16.135,17.297
		c14.446,7.564,28.856,14.508,45.533,19.905c47.175,15.05,78.766,5.031,84.194,1.156c8.516-0.068,53.395-13.305,92.62-93.233
		c-7.81-1.444-15.579-2.919-23.222-4.525C1098.829,1555.419,1068.998,1554.376,1061.133,1560.09z"/>
	<path d="M1151.187,1453.209c7.567,1.416,15.294,2.861,22.937,3.915c39.154-88.234,48.47-94.494,144.042-104.811
		c1.7-10.181,1.5-9.07,3.343-23.03C1207.226,1341.994,1197.437,1350.971,1151.187,1453.209z"/>
	<path d="M1037.505,1475.016l26.074,78.815c0.568-0.189,2.213-0.721,4.501-1.622l-26.468-78.366
		C1039.992,1474.25,1038.865,1474.587,1037.505,1475.016z"/>
	<path d="M1050,1472.084l26.691,75.914c1.412-0.792,2.806-1.622,4.18-2.49l-26.517-73.944
		C1052.888,1471.697,1051.437,1471.871,1050,1472.084z"/>
	<path d="M1063.282,1471.12l25.586,68.661c1.303-1.052,2.586-2.136,3.85-3.25l-24.825-65.375
		C1066.34,1471.11,1064.804,1471.098,1063.282,1471.12z"/>
	<path d="M1077.361,1471.798l22.732,57.7c1.196-1.264,2.368-2.569,3.523-3.888l-21.394-53.329
		C1080.587,1472.093,1078.97,1471.94,1077.361,1471.798z"/>
	<path d="M1092.173,1473.677l18.175,43.732c1.1-1.423,2.182-2.863,3.247-4.318l-16.288-38.516
		C1095.579,1474.256,1093.868,1473.955,1092.173,1473.677z"/>
	<path d="M1122.67,1499.243l-9.645-21.675c-1.79-0.365-3.569-0.729-5.336-1.09l12.026,27.486
		C1120.717,1502.399,1121.701,1500.825,1122.67,1499.243z"/>
	<path d="M1183.009,1448.207l6.256,10.836c1.86,0.175,3.716,0.334,5.568,0.477l-9.605-16.401
		C1184.486,1444.82,1183.746,1446.517,1183.009,1448.207z"/>
	<path d="M1189.696,1433.305l16.176,26.858c1.841,0.069,3.683,0.129,5.484,0.112l-19.392-31.754L1189.696,1433.305z"/>
	<path d="M1196.54,1419.299l25.532,40.676c1.777-0.099,3.545-0.224,5.3-0.376l-28.448-44.707
		C1198.114,1416.341,1197.32,1417.81,1196.54,1419.299z"/>
	<path d="M1203.8,1406.484l33.818,51.733c1.682-0.298,3.351-0.625,5.004-0.986l-36.262-54.732
		C1205.488,1403.801,1204.635,1405.13,1203.8,1406.484z"/>
	<path d="M1211.728,1395.093l40.511,59.545c1.556-0.522,3.095-1.079,4.612-1.673l-42.3-61.359
		C1213.586,1392.735,1212.646,1393.899,1211.728,1395.093z"/>
	<path d="M1220.564,1385.301l45.067,63.688c1.429-0.726,2.801-1.539,4.153-2.386l-46.016-64.187
		C1222.681,1383.352,1221.626,1384.332,1220.564,1385.301z"/>
	<path d="M1230.598,1377.315l46.912,63.774c1.238-1.004,2.447-2.043,3.624-3.117l-46.842-62.865
		C1233.033,1375.804,1231.802,1376.54,1230.598,1377.315z"/>
	<path d="M1242.04,1371.2l45.694,59.783c1.048-1.242,2.068-2.516,3.059-3.818l-44.625-57.646
		C1244.769,1370.048,1243.392,1370.607,1242.04,1371.2z"/>
	<path d="M1254.8,1366.623l41.553,52.342c0.866-1.446,1.706-2.919,2.521-4.414l-39.55-49.195
		C1257.797,1365.752,1256.288,1366.173,1254.8,1366.623z"/>
	<path d="M1268.76,1363.247l34.699,42.096c0.711-1.596,1.376-3.242,2.032-4.889l-31.847-38.157
		C1272,1362.593,1270.383,1362.924,1268.76,1363.247z"/>
	<path d="M1283.736,1360.705l25.406,29.694c0.571-1.713,1.122-3.441,1.656-5.183l-21.812-25.178
		C1287.228,1360.247,1285.476,1360.468,1283.736,1360.705z"/>
	<path d="M1299.621,1358.756l14.016,15.785c0.442-1.804,0.869-3.617,1.283-5.438l-9.809-10.912
		C1303.286,1358.378,1301.455,1358.567,1299.621,1358.756z"/>
	<path d="M1356.273,1302.3l16.037,14.486c1.807-0.423,3.613-0.864,5.416-1.321l-20.859-18.61
		C1356.671,1298.659,1356.473,1300.474,1356.273,1302.3z"/>
	<path d="M1358.219,1286.315l30.118,26.217c1.759-0.516,3.468-1.091,5.169-1.685l-34.55-29.704
		C1358.713,1282.854,1358.467,1284.579,1358.219,1286.315z"/>
	<path d="M1360.637,1271.16l42.814,35.909c1.626-0.675,3.235-1.375,4.829-2.099l-46.634-38.627
		C1361.29,1267.926,1360.954,1269.531,1360.637,1271.16z"/>
	<path d="M1363.901,1257.06l53.463,43.193c1.467-0.84,2.913-1.706,4.333-2.602l-56.455-45.039
		C1364.769,1254.071,1364.321,1255.553,1363.901,1257.06z"/>
	<path d="M1368.342,1244.171l61.415,47.779c1.271-1.019,2.514-2.067,3.726-3.146l-63.359-48.669
		C1369.497,1241.455,1368.903,1242.8,1368.342,1244.171z"/>
	<path d="M1374.272,1232.6l66.029,49.448c1.059-1.194,2.052-2.441,3.024-3.707l-66.724-49.33
		C1375.784,1230.178,1375.026,1231.388,1374.272,1232.6z"/>
	<path d="M714.788,1526.505c12.987,13.561,12.033,12.528,16.262,16.645c81.553-48.032,96.486-48.1,178.157,0.001
		c4.25-4.137,3.267-3.076,16.263-16.645C825.948,1470.037,813.698,1470.378,714.788,1526.505z"/>
	<path d="M686.119,1542.051c-73.08,36.354-97.401,18.033-106.995,18.037c-8.453-6.141-37.622-4.53-75.996-77.438
		c-7.649,1.607-15.421,3.083-23.222,4.525c19.539,39.815,45.735,78.311,88.163,92.477c1.585,0.516,3.071,0.746,4.457,0.757
		c5.019,3.582,46.48,19.359,114.928-13.581c5.007-2.427,9.941-4.936,14.8-7.48C698.132,1555.047,690.277,1546.729,686.119,1542.051z
		"/>
	<path d="M584.781,1556.461c0.571,0.181,2.214,0.717,4.595,1.331l24.617-78.967c-1.551-0.623-2.661-1.012-4.013-1.463
		L584.781,1556.461z"/>
	<path d="M598.818,1559.442c1.608,0.189,3.224,0.335,4.846,0.44l21.979-75.417c-1.265-0.754-2.541-1.465-3.83-2.137
		L598.818,1559.442z"/>
	<path d="M613.5,1559.947c1.672-0.086,3.348-0.211,5.025-0.37l18.314-67.489c-1.229-0.948-2.466-1.86-3.71-2.736L613.5,1559.947z"/>
	<path d="M628.626,1558.215c1.707-0.304,3.425-0.686,5.134-1.071l14.015-55.725c-1.213-1.116-2.436-2.176-3.65-3.251
		L628.626,1558.215z"/>
	<path d="M658.635,1512.127c-1.21-1.271-2.418-2.518-3.627-3.739l-10.981,46.068c1.726-0.506,3.448-1.037,5.165-1.59
		L658.635,1512.127z"/>
	<path d="M669.597,1523.784c-1.234-1.345-2.461-2.683-3.679-4.011l-6.413,29.308c1.73-0.68,3.452-1.378,5.165-2.09L669.597,1523.784
		z"/>
	<path d="M742.178,1553.575c1.398,1.274,2.805,2.51,4.221,3.692l1.865-18.915c-1.601,0.952-3.195,1.875-4.782,2.779
		L742.178,1553.575z"/>
	<path d="M754.957,1564.224c1.45,1.13,2.906,2.24,4.37,3.328l2.97-37.089c-1.55,0.824-3.098,1.667-4.645,2.524L754.957,1564.224z"/>
	<path d="M768.17,1573.618c1.496,0.954,3,1.881,4.51,2.779l3.263-52.89c-1.507,0.707-3.015,1.44-4.522,2.195L768.17,1573.618z"/>
	<path d="M781.774,1581.374c1.536,0.735,3.078,1.439,4.626,2.106l2.845-65.593c-1.472,0.552-2.944,1.139-4.417,1.756
		L781.774,1581.374z"/>
	<path d="M795.7,1587.017c1.564,0.514,3.134,0.997,4.71,1.426l1.874-74.504c-1.445,0.331-2.889,0.691-4.335,1.094L795.7,1587.017z"
		/>
	<path d="M809.843,1590.301c1.582,0.223,3.168,0.403,4.758,0.535l0.555-78.975c-1.431,0.096-2.862,0.238-4.292,0.427
		L809.843,1590.301z"/>
	<path d="M823.687,1511.783l0.398,79.169c1.59-0.1,3.177-0.247,4.76-0.44l-0.869-78.393
		C826.547,1511.96,825.118,1511.848,823.687,1511.783z"/>
	<path d="M836.548,1513.6l1.741,75.226c1.578-0.353,3.15-0.817,4.718-1.304l-2.13-72.869
		C839.434,1514.275,837.992,1513.951,836.548,1513.6z"/>
	<path d="M849.562,1517.359l2.762,66.773c1.552-0.643,3.098-1.323,4.637-2.036l-2.993-63.051
		C852.499,1518.451,851.03,1517.888,849.562,1517.359z"/>
	<path d="M862.833,1522.824l3.249,54.457c1.514-0.879,3.022-1.789,4.523-2.725l-3.263-49.594
		C865.839,1524.225,864.336,1523.512,862.833,1522.824z"/>
	<path d="M876.44,1529.663l3.041,38.962c1.468-1.073,2.93-2.17,4.385-3.287l-2.796-33.194
		C879.527,1531.299,877.984,1530.471,876.44,1529.663z"/>
	<path d="M890.425,1537.436l2.029,21.012c1.42-1.196,2.837-2.367,4.241-3.628l-1.5-14.596
		C893.609,1539.298,892.019,1538.368,890.425,1537.436z"/>
	<path d="M979.047,1548.404l-5.92-27.32c-1.221,1.34-2.449,2.689-3.685,4.046l4.445,21.149
		C975.599,1547.002,977.319,1547.711,979.047,1548.404z"/>
	<path d="M980.421,1513.372l8.938,38.918c1.725,0.609,3.44,1.126,5.169,1.659l-10.474-44.343
		C982.852,1510.851,981.641,1512.107,980.421,1513.372z"/>
	<path d="M991.282,1502.527l13.518,54.219c1.713,0.411,3.427,0.793,5.143,1.146l-15.013-58.663
		C993.71,1500.298,992.495,1501.398,991.282,1502.527z"/>
	<path d="M1002.203,1493.039l17.864,66.369c1.681,0.182,3.361,0.332,5.038,0.442l-19.204-69.62
		C1004.661,1491.132,1003.429,1492.067,1002.203,1493.039z"/>
	<path d="M1013.364,1485.226l21.618,74.748c1.628-0.079,3.25-0.198,4.865-0.359l-22.674-76.609
		C1015.892,1483.706,1014.623,1484.446,1013.364,1485.226z"/>
	<path d="M1024.951,1479.344l24.389,78.804c1.567-0.32,3.097-0.767,4.63-1.217l-25.026-79.116
		C1027.596,1478.277,1026.279,1478.831,1024.951,1479.344z"/>
	<path d="M189.279,1276.692c-3.313-10.153-27.813-25.719-16.09-107.269c-7.066-3.224-14.315-6.54-21.454-9.96
		c-7.434,43.74-8.969,90.161,17.107,126.576c0.98,1.347,2.049,2.403,3.164,3.224c2.611,7.783,28.389,46.329,117.245,59.213
		c-1.034-7.872-2-15.742-2.853-23.486C205.601,1311.181,197.129,1282.371,189.279,1276.692z"/>
	<path d="M318.749,1329.281c1.838,13.928,1.632,12.782,3.343,23.03c95.562,10.316,104.885,16.57,144.042,104.812
		c7.629-1.052,15.292-2.484,22.937-3.915C442.961,1352.153,435.164,1342.221,318.749,1329.281z"/>
	<path d="M195.989,1277.074c0.356,0.481,1.372,1.879,2.939,3.771l66.308-49.447c-0.891-1.415-1.563-2.382-2.394-3.541
		L195.989,1277.074z"/>
	<path d="M205.589,1287.728c1.19,1.096,2.412,2.163,3.662,3.2l62.099-48.109c-0.582-1.353-1.198-2.679-1.847-3.98L205.589,1287.728z
		"/>
	<path d="M217.167,1296.757c1.403,0.912,2.831,1.796,4.281,2.653l54.485-43.836c-0.438-1.491-0.902-2.956-1.394-4.397
		L217.167,1296.757z"/>
	<path d="M230.416,1304.242c1.573,0.745,3.174,1.456,4.786,2.147l44.1-36.836c-0.328-1.615-0.681-3.202-1.046-4.774
		L230.416,1304.242z"/>
	<path d="M245.077,1310.253c1.695,0.604,3.391,1.195,5.114,1.748l31.598-27.393c-0.248-1.732-0.494-3.451-0.738-5.156
		L245.077,1310.253z"/>
	<path d="M283.794,1300.492c-0.205-1.816-0.408-3.621-0.61-5.414l-22.427,19.928c1.797,0.469,3.597,0.919,5.4,1.353
		L283.794,1300.492z"/>
	<path d="M333.319,1358.01l-8.384,9.289c0.404,1.825,0.822,3.642,1.254,5.451l12.648-14.187
		C336.992,1358.377,335.152,1358.193,333.319,1358.01z"/>
	<path d="M349.54,1359.805l-20.577,23.656c0.488,1.788,1.04,3.509,1.596,5.234l24.246-28.223L349.54,1359.805z"/>
	<path d="M364.979,1362.003l-30.848,36.808c0.639,1.662,1.299,3.308,1.982,4.933l33.787-40.822
		C368.275,1362.595,366.633,1362.29,364.979,1362.003z"/>
	<path d="M379.412,1364.964l-38.823,48.091c0.799,1.511,1.622,3.001,2.471,4.464l40.926-51.338
		C382.481,1365.75,380.955,1365.345,379.412,1364.964z"/>
	<path d="M392.696,1368.998l-44.201,56.859c0.974,1.323,1.975,2.617,3.005,3.881l45.378-59.12
		C395.508,1370.047,394.113,1369.508,392.696,1368.998z"/>
	<path d="M404.716,1374.418l-46.744,62.467c1.153,1.106,2.345,2.165,3.563,3.196l46.927-63.524
		C407.24,1375.806,405.986,1375.1,404.716,1374.418z"/>
	<path d="M415.405,1381.503l-46.258,64.249c1.335,0.87,2.689,1.709,4.078,2.494l45.415-63.904
		C417.585,1383.366,416.512,1382.412,415.405,1381.503z"/>
	<path d="M424.746,1390.503l-42.834,61.864c1.503,0.618,3.026,1.199,4.569,1.745l41.129-60.19
		C426.678,1392.751,425.725,1391.61,424.746,1390.503z"/>
	<path d="M433.029,1401.229l-37.025,55.637c1.641,0.382,3.299,0.731,4.971,1.049l34.646-52.764
		C434.776,1403.818,433.913,1402.51,433.029,1401.229z"/>
	<path d="M440.531,1413.476l-29.381,45.966c1.748,0.17,3.508,0.312,5.279,0.428l26.509-42.041
		C442.15,1416.357,441.348,1414.906,440.531,1413.476z"/>
	<path d="M447.548,1426.955l-20.436,33.311c1.808,0.013,3.607,0.031,5.454-0.04l17.244-28.501
		C449.056,1430.133,448.301,1428.543,447.548,1426.955z"/>
	<path d="M443.59,1459.656c1.851-0.132,3.706-0.281,5.565-0.446l7.363-12.692c-0.739-1.68-1.48-3.366-2.223-5.056L443.59,1459.656z"
		/>
	<path d="M516.63,1497.668c0.961,1.589,1.937,3.172,2.929,4.746l11.258-25.587c-1.776,0.369-3.563,0.74-5.361,1.114L516.63,1497.668
		z"/>
	<path d="M525.626,1511.607c1.034,1.517,2.116,2.948,3.204,4.39l17.572-42.038c-1.703,0.299-3.419,0.6-5.148,0.903L525.626,1511.607
		z"/>
	<path d="M535.5,1524.29c1.145,1.338,2.308,2.653,3.49,3.945l22.312-56.294c-1.615,0.15-3.245,0.327-4.891,0.529L535.5,1524.29z"/>
	<path d="M546.291,1535.414c1.254,1.135,2.526,2.242,3.818,3.316l25.357-67.622c-1.532,0.001-3.08,0.035-4.643,0.101
		L546.291,1535.414z"/>
	<path d="M558.029,1544.634c1.364,0.893,2.747,1.749,4.148,2.567l26.655-75.317c-1.448-0.186-2.91-0.333-4.387-0.441
		L558.029,1544.634z"/>
	<path d="M570.721,1551.589c1.455,0.663,2.957,1.199,4.462,1.736l26.225-78.727c-1.362-0.419-2.754-0.743-4.129-1.11
		L570.721,1551.589z"/>
	<path d="M78.939,935.185c1.866-3.611,4.17-7.67,11.512-20.662c-55.604-55.111-47.965-89.617-50.098-96.2
		c2.117-6.534-5.557-41.036,50.098-96.2c-7.342-12.991-9.646-17.051-11.512-20.662C19.936,757.557,15.54,807.492,18.987,818.323
		C16.529,826.044,15.62,874.985,78.939,935.185z"/>
	<path d="M114.07,937.037c-3.508,6.382-5.492,9.824-10.856,20.583c72.158,65.158,74.567,75.445,55.004,169.417
		c9.366,4.879,10.318,5.261,20.875,10.281C201.57,1026.434,199.05,1015.555,114.07,937.037z"/>
	<path d="M128.601,822.128l-83.015,0.448c0.011,0.598,0.03,2.324,0.21,4.775l82.709-0.947
		C128.597,824.734,128.609,823.556,128.601,822.128z"/>
	<path d="M127.492,834.938l-80.447,1.891c0.281,1.586,0.69,3.166,1.103,4.739l78.52-2.324
		C126.981,837.808,127.214,836.374,127.492,834.938z"/>
	<path d="M124.35,847.881l-73.209,3.055c0.581,1.563,1.199,3.119,1.85,4.665l69.85-3.341
		C123.381,850.796,123.884,849.336,124.35,847.881z"/>
	<path d="M119.379,861.065l-61.905,3.716c0.827,1.529,1.683,3.047,2.567,4.555l57.335-3.794
		C118.074,864.044,118.742,862.551,119.379,861.065z"/>
	<path d="M112.923,874.575l-47.213,3.702c1.036,1.485,2.093,2.958,3.17,4.419l41.67-3.525
		C111.364,877.631,112.156,876.099,112.923,874.575z"/>
	<path d="M102.744,893.194c0.869-1.583,1.821-3.166,2.701-4.735l-29.862,2.894c1.177,1.437,2.316,2.867,3.563,4.274L102.744,893.194
		z"/>
	<path d="M108.947,968.832l-12.244,2.578c-0.749,1.714-1.483,3.43-2.2,5.148l18.574-4.032
		C111.697,971.292,110.319,970.06,108.947,968.832z"/>
	<path d="M120.985,979.829l-30.555,7.029c-0.634,1.728-1.2,3.446-1.769,5.169l36.208-8.567L120.985,979.829z"/>
	<path d="M132.189,990.679l-46.595,11.635c-0.462,1.722-0.897,3.442-1.301,5.159l51.331-13.157
		C134.503,993.096,133.357,991.884,132.189,990.679z"/>
	<path d="M142.125,1001.553l-59.676,16.086c-0.242,1.693-0.452,3.383-0.625,5.067l63.284-17.482
		C144.146,1003.991,143.15,1002.767,142.125,1001.553z"/>
	<path d="M150.498,1012.617l-69.176,20.035c0.012,1.643,0.062,3.28,0.154,4.908l71.455-21.177
		C152.157,1015.115,151.345,1013.861,150.498,1012.617z"/>
	<path d="M157.043,1024.055l-74.524,23.095c0.259,1.581,0.623,3.133,0.999,4.685l75.291-23.847
		C158.266,1026.661,157.646,1025.36,157.043,1024.055z"/>
	<path d="M161.53,1036.06l-75.172,24.838c0.569,1.49,1.181,2.962,1.836,4.416l74.285-25.058
		C162.208,1038.843,161.892,1037.444,161.53,1036.06z"/>
	<path d="M163.8,1048.824l-70.995,24.932c0.856,1.383,1.751,2.748,2.682,4.095l68.63-24.582
		C164.048,1051.775,163.944,1050.293,163.8,1048.824z"/>
	<path d="M164.199,1062.367l-62.632,23.313c1.107,1.272,2.248,2.527,3.418,3.766l59.019-22.386
		C164.099,1065.485,164.165,1063.92,164.199,1062.367z"/>
	<path d="M163.085,1076.681l-50.764,19.977c1.296,1.172,2.658,2.312,4.022,3.446l46.135-18.487
		C162.705,1079.963,162.888,1078.325,163.085,1076.681z"/>
	<path d="M160.873,1091.703l-36.093,14.984c1.453,1.073,2.927,2.131,4.418,3.177l30.686-12.964
		C160.23,1095.164,160.561,1093.431,160.873,1091.703z"/>
	<path d="M143.253,1118.765l13.408-5.96c0.384-1.793,0.769-3.592,1.156-5.394l-19.343,8.455
		C140.054,1116.843,141.647,1117.809,143.253,1118.765z"/>
	<path d="M175.317,1189.504c-0.151,1.849-0.286,3.701-0.403,5.556l24.127-14.118c-1.658-0.741-3.326-1.487-5.005-2.237
		L175.317,1189.504z"/>
	<path d="M174.445,1211.501l38.894-23.733c-1.546-0.763-3.104-1.531-4.673-2.305l-34.214,20.588
		C174.423,1207.872,174.388,1209.709,174.445,1211.501z"/>
	<path d="M174.996,1222.119c0.144,1.753,0.318,3.499,0.519,5.236l51.1-32.49c-1.399-0.824-2.825-1.636-4.28-2.437L174.996,1222.119z
		"/>
	<path d="M177.195,1237.46c0.351,1.652,0.733,3.293,1.151,4.919l60.22-39.866c-1.244-0.898-2.519-1.777-3.827-2.64L177.195,1237.46z
		"/>
	<path d="M181.279,1251.812c0.581,1.521,1.199,3.025,1.855,4.508l65.795-45.322c-1.065-1-2.165-1.977-3.3-2.931L181.279,1251.812z"
		/>
	<path d="M187.482,1264.877c0.791,1.388,1.658,2.727,2.576,4.033l67.458-48.323c-0.873-1.129-1.776-2.232-2.678-3.335
		L187.482,1264.877z"/>
	<path d="M173.19,467.222c-11.73-81.608,12.746-97.017,16.091-107.269c8.237-5.959,16.165-34.462,97.118-48.299
		c0.854-7.75,1.82-15.623,2.854-23.486c-44.013,6.382-88.567,19.286-115.144,55.216c-0.983,1.345-1.661,2.685-2.102,3.997
		c-6.771,4.984-35.291,41.416-20.271,129.8C158.884,473.758,166.13,470.444,173.19,467.222z"/>
	<path d="M179.095,499.327c-10.572,5.027-11.496,5.395-20.875,10.281c19.678,94.525,16.535,104.816-55.005,169.417
		c5.383,10.796,7.371,14.242,10.856,20.583C196.97,623.023,202.161,613.172,179.095,499.327z"/>
	<path d="M258.363,414.932l-67.389-48.481c-0.345,0.489-1.379,1.874-2.682,3.958l67.44,47.891
		C256.788,417.006,257.518,416.081,258.363,414.932z"/>
	<path d="M249.971,424.651l-66.176-45.783c-0.68,1.468-1.322,2.957-1.926,4.464l64.875,44.295
		C247.855,426.659,248.93,425.667,249.971,424.651z"/>
	<path d="M239.786,433.239l-61.016-40.572c-0.439,1.614-0.844,3.243-1.216,4.885l58.469,38.361
		C237.311,435.04,238.564,434.149,239.786,433.239z"/>
	<path d="M227.991,440.96l-52.266-33.381c-0.221,1.729-0.412,3.467-0.575,5.212l48.616,30.629
		C225.203,442.613,226.611,441.793,227.991,440.96z"/>
	<path d="M214.872,448.12l-40.376-24.75c-0.058,1.796-0.103,3.588-0.069,5.416l35.787,21.635
		C211.779,449.648,213.332,448.882,214.872,448.12z"/>
	<path d="M195.7,457.204c1.667-0.752,3.324-1.5,4.97-2.242l-25.864-15.205c0.105,1.853,0.228,3.703,0.368,5.551L195.7,457.204z"/>
	<path d="M156.268,522.047l-11.424-5.106c-1.612,0.948-3.212,1.907-4.799,2.876l17.4,7.648
		C157.051,525.653,156.659,523.846,156.268,522.047z"/>
	<path d="M159.564,538.024l-28.857-12.261c-1.553,1.016-3.003,2.08-4.479,3.139l34.334,14.337L159.564,538.024z"/>
	<path d="M162.252,553.383l-44.542-17.956c-1.384,1.122-2.745,2.259-4.081,3.412l49.27,19.506
		C162.707,556.699,162.49,555.045,162.252,553.383z"/>
	<path d="M163.903,568.019l-57.744-22.039c-1.19,1.228-2.352,2.472-3.481,3.734l61.483,23.029
		C164.107,571.179,164.019,569.604,163.903,568.019z"/>
	<path d="M164.179,581.892l-67.751-24.424c-0.955,1.337-1.876,2.69-2.758,4.062l70.266,24.838
		C164.054,584.889,164.134,583.396,164.179,581.892z"/>
	<path d="M162.758,594.994l-73.876-25.09c-0.721,1.431-1.337,2.901-1.944,4.378l74.939,24.932
		C162.216,597.821,162.477,596.404,162.758,594.994z"/>
	<path d="M159.337,607.345l-75.425-24.06c-0.415,1.54-0.784,3.091-1.108,4.652l74.836,23.36
		C158.25,609.995,158.816,608.678,159.337,607.345z"/>
	<path d="M153.676,619.008l-72.1-21.53c-0.119,1.622-0.197,3.252-0.235,4.889l69.981,20.424
		C152.144,621.542,152.93,620.281,153.676,619.008z"/>
	<path d="M146.042,630.202l-64.381-17.927c0.149,1.68,0.336,3.366,0.555,5.056l60.912,16.554
		C144.13,632.666,145.103,631.439,146.042,630.202z"/>
	<path d="M136.736,641.132l-52.817-13.654c0.345,1.705,0.791,3.432,1.225,5.15l48.195,12.14
		C134.476,643.552,135.608,642.34,136.736,641.132z"/>
	<path d="M126.122,651.989l-38.011-9.076c0.547,1.722,1.119,3.445,1.712,5.168l32.449,7.535
		C123.57,654.413,124.855,653.205,126.122,651.989z"/>
	<path d="M114.419,662.905l-20.62-4.52c0.706,1.719,1.43,3.438,2.169,5.155l14.352,3.053
		C111.682,665.367,113.049,664.137,114.419,662.905z"/>
	<path d="M80.37,739.621c-1.242,1.403-2.47,2.82-3.632,4.254l27.818,2.753c-0.918-1.576-1.8-3.157-2.694-4.747L80.37,739.621z"/>
	<path d="M69.957,752.501c-1.092,1.456-2.165,2.924-3.216,4.404l45.417,3.654c-0.783-1.529-1.59-3.066-2.418-4.611L69.957,752.501z"
		/>
	<path d="M60.927,765.815c-0.903,1.503-1.779,3.018-2.626,4.542l60.438,3.751c-0.657-1.49-1.345-2.987-2.062-4.491L60.927,765.815z"
		/>
	<path d="M53.649,779.513c-0.675,1.543-1.318,3.094-1.923,4.655l72.151,3.156c-0.491-1.459-1.018-2.922-1.581-4.389L53.649,779.513z
		"/>
	<path d="M48.578,793.518c-0.448,1.571-0.855,3.148-1.221,4.732l79.868,2.038c-0.25-1.436-0.541-2.873-0.875-4.312L48.578,793.518z"
		/>
	<path d="M45.928,807.721c-0.148,1.587-0.251,3.178-0.304,4.773l82.977,0.614c-0.015-1.427-0.079-2.852-0.188-4.277L45.928,807.721z
		"/>
	<path d="M579.128,76.559c9.76,0.004,33.868-18.34,106.994,18.038c4.155-4.674,12.042-13.025,16.135-17.297
		c-14.582-7.635-28.958-14.541-45.534-19.905c-43.038-13.731-76.458-6.678-84.194-1.156c-8.516,0.068-53.395,13.305-92.62,93.232
		c7.81,1.444,15.579,2.919,23.222,4.525C541.431,81.229,571.267,82.271,579.128,76.559z"/>
	<path d="M322.094,284.336c-1.699,10.175-1.5,9.062-3.343,23.03c114.284-12.711,124.073-21.689,170.322-123.926
		c-7.567-1.416-15.294-2.861-22.937-3.915C426.983,267.758,417.667,274.018,322.094,284.336z"/>
	<path d="M602.755,161.633l-26.074-78.815c-0.568,0.189-2.213,0.721-4.501,1.622l26.468,78.366
		C600.269,162.399,601.396,162.062,602.755,161.633z"/>
	<path d="M590.261,164.565L563.57,88.651c-1.412,0.792-2.806,1.622-4.18,2.49l26.517,73.944
		C587.373,164.952,588.824,164.778,590.261,164.565z"/>
	<path d="M576.979,165.529l-25.586-68.661c-1.303,1.052-2.586,2.137-3.85,3.25l24.825,65.375
		C573.92,165.538,575.457,165.55,576.979,165.529z"/>
	<path d="M562.899,164.851l-22.732-57.7c-1.197,1.264-2.368,2.569-3.524,3.888l21.394,53.329
		C559.674,164.556,561.291,164.708,562.899,164.851z"/>
	<path d="M548.088,162.972l-18.175-43.732c-1.1,1.423-2.182,2.863-3.247,4.318l16.288,38.516
		C544.681,162.393,546.392,162.693,548.088,162.972z"/>
	<path d="M517.591,137.406l9.645,21.675c1.79,0.365,3.569,0.729,5.336,1.09l-12.026-27.486
		C519.544,134.25,518.56,135.824,517.591,137.406z"/>
	<path d="M457.252,188.442l-6.256-10.836c-1.86-0.175-3.716-0.334-5.568-0.477l9.605,16.401
		C455.774,191.829,456.515,190.132,457.252,188.442z"/>
	<path d="M450.564,203.344l-16.176-26.858c-1.841-0.069-3.683-0.129-5.484-0.112l19.392,31.754L450.564,203.344z"/>
	<path d="M443.721,217.35l-25.532-40.676c-1.777,0.099-3.545,0.224-5.3,0.376l28.448,44.707
		C442.147,220.308,442.941,218.838,443.721,217.35z"/>
	<path d="M436.461,230.165l-33.818-51.733c-1.682,0.298-3.351,0.625-5.004,0.986l36.262,54.732
		C434.773,232.848,435.625,231.518,436.461,230.165z"/>
	<path d="M428.533,241.556l-40.511-59.545c-1.556,0.523-3.095,1.079-4.612,1.673l42.3,61.359
		C426.675,243.914,427.615,242.75,428.533,241.556z"/>
	<path d="M419.697,251.348l-45.067-63.688c-1.429,0.726-2.801,1.539-4.153,2.386l46.016,64.187
		C417.58,253.297,418.635,252.317,419.697,251.348z"/>
	<path d="M409.663,259.334l-46.912-63.774c-1.238,1.004-2.447,2.043-3.624,3.117l46.842,62.865
		C407.227,260.845,408.459,260.109,409.663,259.334z"/>
	<path d="M398.221,265.449l-45.694-59.783c-1.048,1.243-2.068,2.516-3.059,3.818l44.625,57.646
		C395.492,266.601,396.869,266.042,398.221,265.449z"/>
	<path d="M385.461,270.026l-41.553-52.342c-0.866,1.446-1.706,2.919-2.521,4.414l39.55,49.195
		C382.464,270.897,383.973,270.475,385.461,270.026z"/>
	<path d="M371.501,273.401l-34.699-42.096c-0.711,1.596-1.375,3.242-2.032,4.889l31.847,38.157
		C368.261,274.056,369.877,273.725,371.501,273.401z"/>
	<path d="M356.525,275.944l-25.406-29.694c-0.571,1.713-1.122,3.441-1.656,5.183l21.811,25.178
		C353.033,276.402,354.784,276.181,356.525,275.944z"/>
	<path d="M340.64,277.893l-14.016-15.785c-0.442,1.804-0.869,3.617-1.283,5.438l9.809,10.912
		C336.975,278.27,338.806,278.082,340.64,277.893z"/>
	<path d="M283.988,334.349l-16.037-14.486c-1.807,0.423-3.613,0.864-5.416,1.321l20.859,18.61
		C283.59,337.99,283.788,336.175,283.988,334.349z"/>
	<path d="M282.042,350.334l-30.118-26.217c-1.759,0.517-3.468,1.091-5.169,1.685l34.55,29.704
		C281.548,353.794,281.794,352.07,282.042,350.334z"/>
	<path d="M279.623,365.489l-42.814-35.909c-1.626,0.675-3.235,1.374-4.829,2.099l46.634,38.627
		C278.971,368.723,279.307,367.118,279.623,365.489z"/>
	<path d="M276.36,379.588l-53.464-43.193c-1.466,0.84-2.913,1.706-4.333,2.602l56.455,45.039
		C275.492,382.578,275.939,381.096,276.36,379.588z"/>
	<path d="M271.919,392.478l-61.415-47.779c-1.271,1.019-2.514,2.067-3.726,3.145l63.359,48.669
		C270.764,395.194,271.358,393.849,271.919,392.478z"/>
	<path d="M265.989,404.049l-66.029-49.448c-1.058,1.194-2.052,2.441-3.024,3.707l66.724,49.33
		C264.477,406.47,265.235,405.261,265.989,404.049z"/>
	<path d="M954.142,94.597c73.082-36.355,97.402-18.033,106.995-18.037c8.454,6.142,37.623,4.53,75.996,77.437
		c7.649-1.607,15.421-3.083,23.222-4.525c-19.54-39.815-45.735-78.311-88.163-92.477c-1.585-0.516-3.071-0.745-4.457-0.756
		c-5.054-3.608-46.577-19.312-114.928,13.581c-5.007,2.427-9.942,4.936-14.8,7.48C942.122,81.595,949.984,89.921,954.142,94.597z"/>
	<path d="M909.211,93.499c-81.566,48.04-96.507,48.088-178.157,0c-4.214,4.101-3.25,3.057-16.262,16.645
		c99.522,56.468,111.771,56.127,210.682,0C912.907,97.023,913.787,97.954,909.211,93.499z"/>
	<path d="M1055.48,80.188c-0.571-0.181-2.214-0.717-4.595-1.331l-24.617,78.967c1.551,0.623,2.661,1.012,4.013,1.463L1055.48,80.188
		z"/>
	<path d="M1041.442,77.207c-1.608-0.189-3.224-0.335-4.846-0.44l-21.98,75.417c1.265,0.754,2.541,1.465,3.83,2.137L1041.442,77.207z
		"/>
	<path d="M1026.761,76.702c-1.672,0.086-3.348,0.211-5.025,0.37l-18.314,67.489c1.229,0.948,2.466,1.86,3.71,2.736L1026.761,76.702z
		"/>
	<path d="M1011.635,78.434c-1.707,0.304-3.425,0.686-5.134,1.071l-14.015,55.725c1.213,1.116,2.436,2.176,3.649,3.251
		L1011.635,78.434z"/>
	<path d="M981.626,124.522c1.21,1.271,2.418,2.518,3.627,3.739l10.981-46.067c-1.726,0.506-3.448,1.037-5.165,1.59L981.626,124.522z
		"/>
	<path d="M970.663,112.865c1.234,1.345,2.461,2.683,3.679,4.011l6.413-29.308c-1.73,0.68-3.452,1.378-5.165,2.09L970.663,112.865z"
		/>
	<path d="M898.083,83.074c-1.398-1.274-2.805-2.51-4.221-3.692l-1.865,18.915c1.601-0.952,3.195-1.875,4.782-2.779L898.083,83.074z"
		/>
	<path d="M885.304,72.425c-1.45-1.13-2.906-2.24-4.37-3.328l-2.97,37.089c1.55-0.824,3.098-1.667,4.645-2.524L885.304,72.425z"/>
	<path d="M872.091,63.031c-1.496-0.954-3-1.881-4.51-2.779l-3.263,52.89c1.507-0.707,3.015-1.44,4.522-2.195L872.091,63.031z"/>
	<path d="M858.487,55.275c-1.536-0.735-3.078-1.439-4.626-2.106l-2.845,65.593c1.472-0.552,2.944-1.139,4.417-1.756L858.487,55.275z
		"/>
	<path d="M844.561,49.632c-1.565-0.514-3.134-0.997-4.71-1.425l-1.874,74.504c1.445-0.331,2.889-0.691,4.335-1.094L844.561,49.632z"
		/>
	<path d="M830.417,46.348c-1.582-0.223-3.168-0.403-4.758-0.535l-0.555,78.975c1.431-0.096,2.862-0.238,4.292-0.427L830.417,46.348z
		"/>
	<path d="M816.574,124.865l-0.398-79.169c-1.59,0.1-3.177,0.247-4.76,0.44l0.869,78.393
		C813.713,124.689,815.143,124.8,816.574,124.865z"/>
	<path d="M803.713,123.049l-1.741-75.226c-1.578,0.353-3.15,0.817-4.718,1.304l2.13,72.869
		C800.827,122.374,802.269,122.698,803.713,123.049z"/>
	<path d="M790.699,119.29l-2.762-66.773c-1.552,0.643-3.098,1.323-4.637,2.036l2.993,63.051
		C787.762,118.198,789.23,118.761,790.699,119.29z"/>
	<path d="M777.427,113.824l-3.249-54.457c-1.514,0.879-3.022,1.789-4.523,2.725l3.263,49.594
		C774.422,112.424,775.925,113.137,777.427,113.824z"/>
	<path d="M763.821,106.986l-3.041-38.961c-1.468,1.073-2.93,2.17-4.385,3.287l2.796,33.194
		C760.733,105.35,762.277,106.177,763.821,106.986z"/>
	<path d="M749.836,99.213L747.807,78.2c-1.42,1.196-2.837,2.367-4.241,3.628l1.5,14.596
		C746.651,97.351,748.242,98.281,749.836,99.213z"/>
	<path d="M661.214,88.245l5.919,27.32c1.221-1.34,2.449-2.689,3.685-4.046l-4.445-21.149
		C664.662,89.647,662.942,88.938,661.214,88.245z"/>
	<path d="M659.84,123.277l-8.938-38.917c-1.725-0.609-3.44-1.127-5.169-1.659l10.474,44.343
		C657.409,125.798,658.62,124.542,659.84,123.277z"/>
	<path d="M648.979,134.122l-13.517-54.22c-1.713-0.411-3.427-0.793-5.143-1.145l15.013,58.663
		C646.55,136.351,647.766,135.251,648.979,134.122z"/>
	<path d="M638.058,143.61L620.194,77.24c-1.681-0.182-3.361-0.332-5.038-0.442l19.204,69.62
		C635.6,145.517,636.832,144.581,638.058,143.61z"/>
	<path d="M626.897,151.422l-21.618-74.748c-1.628,0.079-3.25,0.198-4.866,0.359l22.674,76.609
		C624.368,152.943,625.638,152.203,626.897,151.422z"/>
	<path d="M615.31,157.305l-24.389-78.804c-1.567,0.32-3.097,0.767-4.63,1.217l25.026,79.116
		C612.665,158.372,613.982,157.818,615.31,157.305z"/>
	<path d="M1318.169,284.339c-95.562-10.316-104.884-16.57-144.042-104.812c-7.629,1.053-15.292,2.484-22.937,3.915
		c46.113,101.059,53.906,110.986,170.322,123.927C1319.679,293.475,1319.885,294.612,1318.169,284.339z"/>
	<path d="M1450.982,359.957c3.314,10.156,27.813,25.718,16.09,107.269c7.066,3.224,14.315,6.54,21.454,9.96
		c7.433-43.737,8.969-90.161-17.107-126.576c-0.98-1.347-2.049-2.403-3.164-3.224c-2.172-6.476-20.073-28.545-53.325-42.778
		c-20.126-8.539-42.182-13.283-63.921-16.435c1.034,7.872,2,15.742,2.854,23.486C1434.66,325.468,1443.132,354.277,1450.982,359.957
		z"/>
	<path d="M1444.272,359.575c-0.356-0.481-1.372-1.878-2.939-3.771l-66.309,49.446c0.891,1.415,1.563,2.382,2.394,3.541
		L1444.272,359.575z"/>
	<path d="M1434.671,348.921c-1.19-1.096-2.412-2.163-3.662-3.2l-62.099,48.109c0.582,1.353,1.198,2.679,1.847,3.98L1434.671,348.921
		z"/>
	<path d="M1423.094,339.892c-1.403-0.912-2.831-1.796-4.281-2.653l-54.485,43.836c0.438,1.491,0.902,2.956,1.394,4.397
		L1423.094,339.892z"/>
	<path d="M1409.845,332.407c-1.573-0.745-3.174-1.456-4.786-2.147l-44.1,36.836c0.328,1.615,0.681,3.202,1.046,4.774
		L1409.845,332.407z"/>
	<path d="M1395.183,326.395c-1.695-0.604-3.391-1.195-5.114-1.748l-31.598,27.393c0.248,1.732,0.494,3.451,0.738,5.156
		L1395.183,326.395z"/>
	<path d="M1356.467,336.157c0.205,1.816,0.408,3.621,0.61,5.414l22.427-19.928c-1.797-0.469-3.598-0.919-5.4-1.353L1356.467,336.157
		z"/>
	<path d="M1306.942,278.639l8.384-9.289c-0.404-1.825-0.822-3.642-1.254-5.451l-12.648,14.187
		C1303.268,278.272,1305.109,278.456,1306.942,278.639z"/>
	<path d="M1290.721,276.844l20.577-23.656c-0.488-1.788-1.04-3.509-1.596-5.234l-24.246,28.223L1290.721,276.844z"/>
	<path d="M1275.282,274.646l30.848-36.808c-0.639-1.662-1.299-3.308-1.982-4.933l-33.787,40.822
		C1271.986,274.053,1273.627,274.359,1275.282,274.646z"/>
	<path d="M1260.849,271.685l38.823-48.091c-0.799-1.511-1.622-3.001-2.471-4.464l-40.926,51.338
		C1257.78,270.899,1259.305,271.304,1260.849,271.685z"/>
	<path d="M1247.564,267.651l44.201-56.859c-0.974-1.323-1.974-2.618-3.005-3.881l-45.378,59.12
		C1244.753,266.602,1246.148,267.141,1247.564,267.651z"/>
	<path d="M1235.545,262.231l46.744-62.467c-1.153-1.106-2.345-2.165-3.563-3.196l-46.927,63.523
		C1233.02,260.843,1234.274,261.549,1235.545,262.231z"/>
	<path d="M1224.855,255.146l46.258-64.249c-1.335-0.87-2.689-1.709-4.078-2.494l-45.415,63.904
		C1222.676,253.283,1223.749,254.237,1224.855,255.146z"/>
	<path d="M1215.515,246.146l42.834-61.864c-1.503-0.618-3.027-1.199-4.569-1.745l-41.129,60.19
		C1213.583,243.898,1214.536,245.039,1215.515,246.146z"/>
	<path d="M1207.231,235.419l37.025-55.637c-1.641-0.382-3.299-0.731-4.971-1.049l-34.646,52.764
		C1205.485,232.831,1206.348,234.139,1207.231,235.419z"/>
	<path d="M1199.729,223.173l29.381-45.966c-1.748-0.17-3.508-0.312-5.279-0.428l-26.509,42.041
		C1198.11,220.292,1198.912,221.743,1199.729,223.173z"/>
	<path d="M1192.712,209.694l20.436-33.311c-1.808-0.013-3.607-0.031-5.454,0.04l-17.245,28.501
		C1191.205,206.516,1191.959,208.106,1192.712,209.694z"/>
	<path d="M1196.671,176.993c-1.851,0.132-3.706,0.281-5.565,0.446l-7.363,12.692c0.739,1.68,1.48,3.366,2.223,5.056
		L1196.671,176.993z"/>
	<path d="M1123.631,138.98c-0.961-1.589-1.937-3.172-2.929-4.746l-11.258,25.587c1.776-0.369,3.563-0.741,5.361-1.114
		L1123.631,138.98z"/>
	<path d="M1114.635,125.042c-1.034-1.517-2.116-2.948-3.204-4.39l-17.572,42.038c1.703-0.299,3.419-0.6,5.148-0.903
		L1114.635,125.042z"/>
	<path d="M1104.761,112.359c-1.145-1.338-2.309-2.653-3.49-3.945l-22.312,56.294c1.615-0.15,3.245-0.327,4.89-0.529
		L1104.761,112.359z"/>
	<path d="M1093.97,101.235c-1.254-1.135-2.526-2.242-3.818-3.316l-25.357,67.622c1.532-0.001,3.08-0.035,4.643-0.101
		L1093.97,101.235z"/>
	<path d="M1082.232,92.015c-1.364-0.893-2.746-1.749-4.148-2.567l-26.655,75.316c1.448,0.186,2.91,0.333,4.388,0.441
		L1082.232,92.015z"/>
	<path d="M1069.539,85.06c-1.455-0.663-2.957-1.2-4.462-1.736l-26.225,78.727c1.362,0.419,2.754,0.743,4.129,1.11L1069.539,85.06z"
		/>
	<path d="M1526.191,699.611c3.513-6.391,5.494-9.829,10.856-20.583c-72.168-65.169-74.563-75.466-55.004-169.417
		c-9.363-4.878-10.326-5.265-20.875-10.281C1438.659,610.368,1441.274,621.158,1526.191,699.611z"/>
	<path d="M1594.465,809.298l-82.709,0.947c-0.092,1.67-0.103,2.848-0.095,4.275l83.015-0.448
		C1594.663,813.475,1594.645,811.749,1594.465,809.298z"/>
	<path d="M1513.593,797.404c-0.314,1.437-0.547,2.871-0.824,4.307l80.447-1.891c-0.281-1.586-0.69-3.166-1.103-4.739
		L1513.593,797.404z"/>
	<path d="M1517.42,784.389c-0.54,1.464-1.043,2.923-1.509,4.379l73.209-3.055c-0.581-1.563-1.199-3.119-1.85-4.665L1517.42,784.389z
		"/>
	<path d="M1522.885,771.106c-0.698,1.499-1.365,2.991-2.002,4.478l61.905-3.716c-0.827-1.529-1.683-3.047-2.567-4.555
		L1522.885,771.106z"/>
	<path d="M1529.711,757.477c-0.815,1.54-1.607,3.072-2.373,4.596l47.213-3.702c-1.036-1.485-2.093-2.958-3.17-4.419
		L1529.711,757.477z"/>
	<path d="M1537.516,743.455c-0.87,1.583-1.821,3.167-2.701,4.735l29.862-2.894c-1.177-1.437-2.315-2.867-3.563-4.274
		L1537.516,743.455z"/>
	<path d="M1531.314,667.816l12.244-2.578c0.749-1.714,1.483-3.43,2.2-5.148l-18.574,4.032
		C1528.564,665.357,1529.942,666.589,1531.314,667.816z"/>
	<path d="M1519.275,656.82l30.555-7.029c0.634-1.728,1.2-3.446,1.769-5.169l-36.208,8.567L1519.275,656.82z"/>
	<path d="M1508.072,645.97l46.595-11.635c0.462-1.721,0.896-3.441,1.301-5.159l-51.331,13.157
		C1505.757,643.553,1506.904,644.765,1508.072,645.97z"/>
	<path d="M1498.135,635.096l59.676-16.086c0.242-1.693,0.452-3.383,0.625-5.067l-63.284,17.482
		C1496.115,632.658,1497.111,633.881,1498.135,635.096z"/>
	<path d="M1489.763,624.032l69.176-20.035c-0.012-1.643-0.062-3.28-0.153-4.908l-71.455,21.177
		C1488.104,621.533,1488.916,622.788,1489.763,624.032z"/>
	<path d="M1483.218,612.594l74.524-23.095c-0.259-1.581-0.623-3.133-0.999-4.685l-75.291,23.847
		C1481.995,609.988,1482.615,611.289,1483.218,612.594z"/>
	<path d="M1478.73,600.589l75.172-24.838c-0.569-1.49-1.181-2.962-1.836-4.416l-74.285,25.058
		C1478.053,597.806,1478.369,599.204,1478.73,600.589z"/>
	<path d="M1476.461,587.825l70.995-24.932c-0.856-1.383-1.751-2.747-2.682-4.095l-68.63,24.582
		C1476.213,584.874,1476.317,586.356,1476.461,587.825z"/>
	<path d="M1476.061,574.282l62.632-23.313c-1.107-1.272-2.248-2.527-3.418-3.766l-59.019,22.386
		C1476.162,571.164,1476.095,572.729,1476.061,574.282z"/>
	<path d="M1477.175,559.968l50.764-19.977c-1.296-1.172-2.658-2.312-4.022-3.446l-46.135,18.487
		C1477.556,556.686,1477.373,558.324,1477.175,559.968z"/>
	<path d="M1479.388,544.946l36.093-14.984c-1.453-1.073-2.927-2.131-4.418-3.177l-30.686,12.964
		C1480.031,541.484,1479.7,543.218,1479.388,544.946z"/>
	<path d="M1497.008,517.884l-13.408,5.96c-0.384,1.793-0.769,3.591-1.156,5.394l19.343-8.455
		C1500.207,519.806,1498.614,518.84,1497.008,517.884z"/>
	<path d="M1464.944,447.144c0.151-1.848,0.286-3.701,0.403-5.556l-24.127,14.118c1.658,0.741,3.326,1.487,5.005,2.237
		L1464.944,447.144z"/>
	<path d="M1465.816,425.147l-38.894,23.733c1.546,0.763,3.104,1.531,4.673,2.305l34.214-20.588
		C1465.837,428.777,1465.873,426.94,1465.816,425.147z"/>
	<path d="M1465.265,414.53c-0.144-1.753-0.318-3.499-0.519-5.237l-51.1,32.49c1.399,0.824,2.825,1.636,4.28,2.437L1465.265,414.53z"
		/>
	<path d="M1463.066,399.189c-0.351-1.652-0.733-3.293-1.151-4.919l-60.22,39.866c1.244,0.898,2.519,1.777,3.827,2.64
		L1463.066,399.189z"/>
	<path d="M1458.982,384.837c-0.581-1.521-1.199-3.024-1.855-4.508l-65.795,45.322c1.065,1,2.165,1.977,3.3,2.931L1458.982,384.837z"
		/>
	<path d="M1452.778,371.772c-0.791-1.388-1.658-2.727-2.576-4.033l-67.458,48.323c0.873,1.129,1.776,2.232,2.678,3.335
		L1452.778,371.772z"/>
</g>
</svg>
